<?xml version="1.0" encoding="iso-8859-1"?>
<!-- Uploaded to: SVG Repo, www.svgrepo.com, Generator: SVG Repo Mixer Tools -->
<svg fill="#8D8D8D" height="70px" width="70px" version="1.1" id="Layer_1" xmlns="http://www.w3.org/2000/svg" xmlns:xlink="http://www.w3.org/1999/xlink" 
	 viewBox="0 0 512 512" xml:space="preserve">
<g>
	<g>
		<path d="M422.776,128.878h-15.673h-105.19V31.347V15.673V0H40.72v512h238.059c-2.999-2.476-5.904-5.099-8.714-7.858
			c-2.56-2.518-5.005-5.12-7.346-7.816c-4.305-4.953-8.234-10.188-11.766-15.673c-11.483-17.805-18.756-38.16-21.023-59.382
			c-0.522-4.869-0.794-9.812-0.794-14.67c0-39.351,16.98-76.821,46.592-102.797l0.157-0.146c0.251-0.219,0.512-0.449,0.763-0.669
			c11.264-9.697,23.928-17.45,37.658-23.05c16.415-6.687,33.761-10.073,51.576-10.073c14.2,0,28.066,2.142,41.221,6.301
			c5.35,1.672,10.585,3.688,15.673,6.019c5.392,2.466,10.627,5.298,15.674,8.474V128.878H422.776z M114.354,107.374H252.28v31.347
			H114.354V107.374z M253.273,265.571H115.346v-31.347h137.927V265.571z M365.129,202.459H114.354v-31.347h250.776V202.459z"/>
	</g>
</g>
<g>
	<g>
		<polygon points="333.26,0.982 333.26,23.207 333.26,45.432 333.26,97.531 385.076,97.531 407.186,97.531 429.296,97.531 		"/>
	</g>
</g>
<g>
	<g>
		<path d="M471.249,404.24c0-0.251-0.01-0.502-0.01-0.752c0-0.094-0.01-0.178-0.01-0.272c-0.01-0.418-0.031-0.836-0.052-1.254
			c0-0.125-0.01-0.261-0.021-0.387c0-0.094,0-0.188-0.01-0.282c-0.01-0.313-0.031-0.637-0.052-0.951
			c-0.01-0.324-0.031-0.637-0.063-0.951c-0.021-0.449-0.052-0.899-0.094-1.337c-0.042-0.512-0.084-1.024-0.136-1.536v-0.042
			c-0.021-0.188-0.042-0.387-0.063-0.585c-0.01-0.199-0.031-0.387-0.063-0.575c-0.01-0.094-0.021-0.178-0.031-0.272
			c-0.031-0.355-0.073-0.711-0.115-1.055c-0.01-0.052-0.01-0.104-0.021-0.157c-0.031-0.355-0.073-0.711-0.125-1.066
			c-0.01-0.073-0.021-0.146-0.031-0.219c-0.104-0.784-0.219-1.557-0.334-2.33c-0.125-0.763-0.251-1.515-0.387-2.267
			c-0.146-0.867-0.313-1.735-0.491-2.591c-0.146-0.7-0.293-1.4-0.449-2.09c-0.01-0.042-0.021-0.084-0.031-0.125
			c-0.063-0.272-0.125-0.533-0.188-0.794c-0.157-0.7-0.334-1.4-0.512-2.09c-0.188-0.752-0.397-1.505-0.606-2.257
			c-0.021-0.084-0.042-0.167-0.073-0.251c-0.157-0.554-0.313-1.097-0.481-1.641c-0.01-0.042-0.021-0.073-0.031-0.115
			c-0.021-0.073-0.042-0.146-0.073-0.219c-0.084-0.282-0.167-0.564-0.261-0.846c-0.188-0.616-0.387-1.233-0.596-1.839
			c-0.052-0.157-0.104-0.324-0.157-0.481c-0.104-0.313-0.219-0.617-0.334-0.93c-0.042-0.136-0.094-0.272-0.146-0.408
			c-0.146-0.449-0.313-0.899-0.481-1.337c-0.23-0.637-0.47-1.275-0.721-1.902c-0.01-0.021-0.021-0.052-0.031-0.073
			c-0.575-1.484-1.202-2.957-1.849-4.409c-0.084-0.178-0.157-0.355-0.24-0.533c-0.324-0.7-0.648-1.4-0.982-2.09
			c-0.01-0.021-0.01-0.042-0.031-0.052c-0.251-0.533-0.512-1.055-0.773-1.578c-0.136-0.272-0.272-0.543-0.418-0.825
			c-0.293-0.575-0.585-1.139-0.888-1.703c-0.282-0.512-0.564-1.024-0.846-1.526c-0.24-0.439-0.481-0.867-0.731-1.296
			s-0.502-0.857-0.752-1.275c-0.209-0.355-0.418-0.711-0.637-1.055c-0.376-0.617-0.752-1.223-1.139-1.818
			c0-0.01-0.01-0.01-0.01-0.021c-0.46-0.711-0.919-1.411-1.39-2.1c-0.46-0.69-0.93-1.369-1.411-2.048
			c-0.01-0.01-0.021-0.021-0.031-0.042c-0.46-0.648-0.93-1.285-1.4-1.923c-0.366-0.481-0.721-0.961-1.097-1.432
			c-0.334-0.439-0.669-0.867-1.014-1.296c-0.031-0.042-0.073-0.094-0.115-0.136c-0.313-0.418-0.658-0.836-0.993-1.243
			c-0.23-0.272-0.449-0.543-0.679-0.805c-0.575-0.69-1.16-1.369-1.755-2.027c-0.167-0.199-0.345-0.397-0.512-0.585
			c-0.627-0.7-1.264-1.379-1.912-2.058l-0.533-0.564c-0.084-0.084-0.157-0.167-0.23-0.24c-0.125-0.125-0.251-0.261-0.376-0.387
			s-0.24-0.251-0.366-0.366c-0.293-0.303-0.596-0.596-0.888-0.888c-0.021-0.021-0.052-0.052-0.073-0.073
			c-0.219-0.23-0.46-0.46-0.69-0.669c-0.491-0.481-0.982-0.951-1.484-1.411c-0.084-0.084-0.178-0.167-0.261-0.251
			c-0.073-0.073-0.146-0.136-0.219-0.199c-0.272-0.261-0.543-0.502-0.826-0.752c-1.233-1.118-2.497-2.205-3.783-3.26
			c-0.554-0.449-1.108-0.899-1.672-1.337c-0.669-0.522-1.337-1.034-2.017-1.536c-0.669-0.512-1.358-1.003-2.048-1.494
			s-1.379-0.972-2.079-1.442c-0.063-0.052-0.136-0.104-0.209-0.146c-0.606-0.408-1.223-0.815-1.849-1.212
			c-0.073-0.052-0.157-0.104-0.23-0.146c-0.596-0.387-1.202-0.763-1.808-1.128c-0.115-0.073-0.219-0.146-0.334-0.209
			c-0.731-0.439-1.473-0.878-2.215-1.306c-0.512-0.293-1.024-0.575-1.546-0.857c-0.376-0.199-0.742-0.408-1.118-0.606
			c-0.021-0.01-0.052-0.031-0.073-0.042c-0.345-0.188-0.7-0.376-1.045-0.554c-0.93-0.481-1.86-0.951-2.811-1.4
			c-0.763-0.376-1.536-0.731-2.32-1.087c-0.773-0.355-1.557-0.69-2.351-1.024c-0.7-0.303-1.411-0.596-2.132-0.878
			c-0.084-0.031-0.167-0.063-0.251-0.094c-0.679-0.272-1.358-0.533-2.048-0.784c-0.157-0.063-0.324-0.115-0.481-0.178
			c-0.648-0.24-1.296-0.47-1.954-0.69c-0.261-0.094-0.522-0.188-0.794-0.272c-0.533-0.178-1.087-0.355-1.63-0.533
			c-0.021-0.01-0.042-0.01-0.063-0.021c-0.293-0.094-0.606-0.188-0.909-0.272c-0.021-0.01-0.031-0.01-0.052-0.021
			c-0.637-0.199-1.285-0.387-1.943-0.575c-0.805-0.23-1.609-0.439-2.424-0.648c-0.721-0.188-1.442-0.366-2.163-0.533
			c-0.199-0.052-0.408-0.094-0.606-0.146c-0.773-0.178-1.546-0.345-2.33-0.502c-0.857-0.178-1.714-0.345-2.581-0.491
			c-0.721-0.136-1.442-0.251-2.173-0.366c-0.01,0-0.021,0-0.031-0.01c-0.334-0.052-0.658-0.094-0.993-0.146
			c-0.502-0.073-1.003-0.146-1.515-0.209c-0.334-0.052-0.669-0.094-1.014-0.125c-0.522-0.063-1.045-0.125-1.567-0.178
			c-0.293-0.042-0.575-0.073-0.867-0.094c-0.596-0.063-1.202-0.115-1.797-0.167c-0.031,0-0.052,0-0.084-0.01
			c-0.073,0-0.136-0.01-0.209-0.01c-0.334-0.021-0.669-0.052-0.993-0.073c-0.491-0.031-0.972-0.063-1.463-0.094
			c-0.042,0-0.073,0-0.115-0.01c-0.334-0.01-0.669-0.031-1.003-0.042c-0.522-0.031-1.045-0.052-1.578-0.063h-0.01
			c-0.334-0.021-0.679-0.031-1.014-0.031h-0.303c-0.648-0.01-1.285-0.021-1.933-0.021c-14.064,0-27.481,2.759-39.748,7.753
			c-10.648,4.347-20.438,10.376-29.017,17.774c-0.24,0.198-0.481,0.407-0.721,0.616c-22.006,19.32-35.913,47.658-35.913,79.245
			c0,3.835,0.219,7.617,0.616,11.337c0.063,0.575,0.125,1.16,0.199,1.734c0.01,0.021,0.01,0.031,0.01,0.052
			c0.063,0.564,0.146,1.118,0.23,1.682c0,0.031,0.01,0.063,0.01,0.094c0.073,0.522,0.146,1.045,0.23,1.557
			c0.094,0.606,0.188,1.212,0.303,1.818c0.125,0.763,0.272,1.515,0.418,2.278c0.136,0.669,0.272,1.337,0.418,2.006
			c0.063,0.293,0.136,0.585,0.199,0.878c0.157,0.7,0.324,1.4,0.502,2.1c0.136,0.564,0.272,1.128,0.428,1.682
			c0.136,0.522,0.282,1.034,0.428,1.546c0.146,0.512,0.293,1.024,0.449,1.536c0.303,1.024,0.627,2.038,0.961,3.051
			c0.146,0.46,0.313,0.93,0.47,1.379c0.021,0.052,0.031,0.094,0.052,0.146c0.021,0.052,0.031,0.094,0.052,0.146
			c0.157,0.47,0.334,0.951,0.512,1.421c0.178,0.491,0.355,0.982,0.543,1.463c0.324,0.815,0.648,1.63,0.982,2.435
			c0.219,0.554,0.46,1.108,0.7,1.651c0.251,0.564,0.502,1.139,0.763,1.703c0.01,0.031,0.021,0.052,0.031,0.084
			c0,0.01,0.01,0.021,0.021,0.031c0.157,0.376,0.324,0.742,0.512,1.108c0.209,0.449,0.428,0.899,0.648,1.348
			c0.031,0.073,0.073,0.157,0.104,0.23c0.293,0.585,0.575,1.16,0.878,1.724c0.408,0.805,0.836,1.599,1.264,2.382
			c0.24,0.449,0.491,0.899,0.752,1.337c0.115,0.219,0.24,0.439,0.376,0.658c0.125,0.219,0.261,0.439,0.387,0.658
			c0.031,0.063,0.073,0.125,0.104,0.188c0.345,0.585,0.69,1.16,1.045,1.735c0.021,0.031,0.042,0.073,0.073,0.104
			c0.178,0.303,0.366,0.606,0.564,0.909c0.188,0.303,0.387,0.596,0.575,0.899c0.282,0.449,0.575,0.899,0.878,1.337
			c0.23,0.355,0.47,0.711,0.721,1.066c0.272,0.408,0.554,0.815,0.846,1.212c0.366,0.522,0.742,1.045,1.118,1.557
			c0.01,0.01,0.01,0.021,0.021,0.031c0.564,0.773,1.139,1.536,1.735,2.288c0.313,0.408,0.627,0.815,0.94,1.212
			c0.104,0.125,0.209,0.24,0.303,0.366c0.355,0.439,0.721,0.878,1.076,1.317c0.084,0.094,0.157,0.188,0.23,0.272
			c0.031,0.031,0.052,0.063,0.084,0.094c0.397,0.481,0.805,0.951,1.223,1.421c0.408,0.481,0.826,0.951,1.243,1.411
			c0.199,0.219,0.397,0.439,0.596,0.648c0.366,0.397,0.721,0.784,1.087,1.16c0.502,0.533,1.003,1.055,1.515,1.567
			c0.366,0.387,0.742,0.752,1.118,1.128c0.439,0.428,0.878,0.846,1.327,1.275c0.021,0.021,0.042,0.042,0.063,0.052
			c0.293,0.293,0.596,0.575,0.899,0.846c0.387,0.355,0.773,0.711,1.17,1.066c0.387,0.355,0.784,0.7,1.181,1.045
			c0.627,0.564,1.275,1.108,1.923,1.641c0.617,0.522,1.243,1.034,1.881,1.526c0.219,0.188,0.449,0.355,0.669,0.533
			c0.648,0.502,1.296,1.003,1.954,1.484c0.836,0.627,1.682,1.233,2.539,1.829c0.784,0.554,1.588,1.097,2.393,1.63
			c0.104,0.063,0.198,0.125,0.303,0.188c0.69,0.449,1.379,0.899,2.079,1.327c0.052,0.031,0.115,0.073,0.167,0.104
			s0.094,0.063,0.146,0.094c0.084,0.052,0.167,0.104,0.251,0.146c0.418,0.261,0.846,0.512,1.264,0.773
			c0.428,0.251,0.857,0.491,1.285,0.742c0.397,0.23,0.794,0.46,1.202,0.679c0.543,0.303,1.097,0.606,1.651,0.899
			c0.554,0.303,1.108,0.596,1.672,0.878c0.282,0.146,0.575,0.282,0.857,0.439c0.042,0.01,0.073,0.031,0.115,0.052
			c0.418,0.209,0.846,0.418,1.264,0.616c0.01,0,0.021,0.01,0.031,0.01c0.397,0.188,0.794,0.376,1.191,0.564
			c0.397,0.188,0.805,0.376,1.202,0.554c0.522,0.23,1.055,0.47,1.578,0.69c0.46,0.209,0.919,0.397,1.39,0.585
			c0.104,0.042,0.219,0.094,0.324,0.136c0.376,0.157,0.752,0.313,1.139,0.46c0.115,0.042,0.24,0.094,0.355,0.136
			c0.533,0.209,1.076,0.418,1.62,0.616c0.543,0.209,1.087,0.408,1.63,0.596c1.055,0.376,2.121,0.731,3.197,1.076
			c0.052,0.021,0.104,0.031,0.157,0.042c0.543,0.178,1.076,0.345,1.62,0.502c1.191,0.355,2.382,0.69,3.594,1.003
			c0.387,0.104,0.784,0.209,1.17,0.293c0.01,0.01,0.01,0.01,0.021,0.01c0.616,0.157,1.233,0.303,1.849,0.439
			c0.627,0.146,1.254,0.282,1.881,0.418c0.104,0.021,0.199,0.042,0.303,0.063c0.031,0.01,0.052,0.01,0.084,0.021
			c0.293,0.052,0.606,0.115,0.899,0.167c0.637,0.136,1.285,0.251,1.923,0.366c0.585,0.104,1.17,0.199,1.755,0.282
			c0.157,0.031,0.313,0.052,0.47,0.073c0.084,0.021,0.157,0.031,0.24,0.042c0.125,0.031,0.24,0.042,0.355,0.052
			c0.512,0.084,1.024,0.157,1.536,0.219h0.01c0.199,0.031,0.408,0.063,0.596,0.084c0.209,0.031,0.397,0.052,0.606,0.073
			c0.157,0.021,0.303,0.042,0.46,0.052c0.575,0.073,1.139,0.136,1.714,0.188c0.073,0.01,0.146,0.021,0.219,0.021
			c0.125,0.01,0.251,0.031,0.376,0.042c0.648,0.063,1.306,0.115,1.964,0.167c0.052,0.01,0.104,0.01,0.167,0.01
			c0.063,0.01,0.136,0.01,0.199,0.01c0.554,0.052,1.118,0.084,1.672,0.115c0.104,0,0.219,0.01,0.324,0.01
			c0.031,0.01,0.063,0.01,0.094,0.01c0.397,0.021,0.794,0.042,1.191,0.052c0.345,0.021,0.69,0.031,1.034,0.042
			c0.345,0.021,0.69,0.031,1.034,0.031c0.073,0.01,0.146,0.01,0.219,0.01h0.167c0.679,0.01,1.358,0.021,2.038,0.021
			c58.211,0,105.399-47.188,105.399-105.399C471.28,405.807,471.27,405.023,471.249,404.24z M394.271,457.153l-13.782-13.782
			l-14.597-14.597l-26.979,26.969L316.75,433.57l26.969-26.969l-28.39-28.39l22.162-22.162l28.39,28.39l26.969-26.969l11.128,11.128
			l11.045,11.034l-21.159,21.159l-5.81,5.82l3.03,3.03l25.349,25.349L394.271,457.153z"/>
	</g>
</g>
</svg>